name precision_landing03_filtered_grf.mot
datacolumns 37
datarows 9
range 1.934000 1.938000
endheader
time	1_ground_force_vx	1_ground_force_vy	1_ground_force_vz	1_ground_force_px	1_ground_force_py	1_ground_force_pz	1_ground_torque_x	1_ground_torque_y	1_ground_torque_z	2_ground_force_vx	2_ground_force_vy	2_ground_force_vz	2_ground_force_px	2_ground_force_py	2_ground_force_pz	2_ground_torque_x	2_ground_torque_y	2_ground_torque_z	3_ground_force_vx	3_ground_force_vy	3_ground_force_vz	3_ground_force_px	3_ground_force_py	3_ground_force_pz	3_ground_torque_x	3_ground_torque_y	3_ground_torque_z	4_ground_force_vx	4_ground_force_vy	4_ground_force_vz	4_ground_force_px	4_ground_force_py	4_ground_force_pz	4_ground_torque_x	4_ground_torque_y	4_ground_torque_z
            1.934000	           -0.158766	          252.303493	            9.982826	            0.140442	            0.000000	            0.269825	           -0.004055	            6.443710	            0.254957	            3.108779	          255.297786	           -3.507861	           -0.121616	            0.000000	            0.280804	           -0.004807	           -0.394739	            0.005424	           10.928799	           -1.354901	           -4.767628	            0.381102	            1.275615	            1.884670	           -0.017224	            0.002135	            0.007514	           -3.235592	           -0.832541	            4.509386	           -0.351732	            1.268414	            1.872758	            0.008327	            0.002142	           -0.011605
            1.934500	           -0.284389	          252.421838	            9.857608	            0.140525	            0.000000	            0.269916	           -0.007248	            6.432993	            0.251222	            3.152322	          255.127042	           -3.699544	           -0.121624	            0.000000	            0.280842	           -0.005256	           -0.425393	            0.006169	           10.911712	           -1.339493	           -4.757171	            0.381102	            1.275614	            1.884668	           -0.017795	            0.002184	            0.007758	           -3.220847	           -0.826480	            4.524093	           -0.351731	            1.268411	            1.872753	            0.008354	            0.002144	           -0.011734
            1.935000	           -0.408865	          252.537550	            9.729920	            0.140608	            0.000000	            0.270008	           -0.010398	            6.422365	            0.247445	            3.195286	          254.959713	           -3.889106	           -0.121633	            0.000000	            0.280881	           -0.005711	           -0.455715	            0.006951	           10.893330	           -1.324715	           -4.746457	            0.381102	            1.275612	            1.884666	           -0.018345	            0.002231	            0.007993	           -3.206925	           -0.819311	            4.538265	           -0.351730	            1.268409	            1.872749	            0.008401	            0.002146	           -0.011888
            1.935500	           -0.532200	          252.650506	            9.599746	            0.140691	            0.000000	            0.270099	           -0.013506	            6.411834	            0.243625	            3.237746	          254.796232	           -4.076359	           -0.121644	            0.000000	            0.280920	           -0.006171	           -0.485661	            0.007770	           10.873802	           -1.310641	           -4.735460	            0.381101	            1.275611	            1.884665	           -0.018872	            0.002275	            0.008219	           -3.194015	           -0.811076	            4.551797	           -0.351729	            1.268407	            1.872744	            0.008466	            0.002150	           -0.012065
            1.936000	           -0.654404	          252.760580	            9.467093	            0.140773	            0.000000	            0.270190	           -0.016573	            6.401406	            0.239763	            3.279776	          254.636996	           -4.261130	           -0.121658	            0.000000	            0.280960	           -0.006636	           -0.515190	            0.008621	           10.853214	           -1.297403	           -4.724271	            0.381099	            1.275610	            1.884663	           -0.019373	            0.002316	            0.008433	           -3.182173	           -0.801834	            4.564686	           -0.351728	            1.268404	            1.872738	            0.008550	            0.002154	           -0.012264
            1.936500	           -0.775494	          252.867640	            9.331987	            0.140854	            0.000000	            0.270280	           -0.019600	            6.391089	            0.235861	            3.321447	          254.482356	           -4.443257	           -0.121673	            0.000000	            0.281001	           -0.007104	           -0.544262	            0.009503	           10.831683	           -1.285094	           -4.712923	            0.381098	            1.275608	            1.884662	           -0.019846	            0.002355	            0.008635	           -3.171511	           -0.791643	            4.576904	           -0.351726	            1.268402	            1.872733	            0.008650	            0.002159	           -0.012483
            1.937000	           -0.895491	          252.971553	            9.194478	            0.140933	            0.000000	            0.270368	           -0.022588	            6.380885	            0.231919	            3.362825	          254.332624	           -4.622599	           -0.121690	            0.000000	            0.281042	           -0.007574	           -0.572844	            0.010412	           10.809320	           -1.273796	           -4.701451	            0.381096	            1.275607	            1.884660	           -0.020290	            0.002391	            0.008825	           -3.162130	           -0.780569	            4.588438	           -0.351725	            1.268400	            1.872728	            0.008765	            0.002164	           -0.012719
            1.937500	           -1.014420	          253.072192	            9.054632	            0.141011	            0.000000	            0.270454	           -0.025537	            6.370798	            0.227940	            3.403975	          254.188070	           -4.799029	           -0.121709	            0.000000	            0.281084	           -0.008047	           -0.600903	            0.011345	           10.786231	           -1.263583	           -4.689895	            0.381095	            1.275606	            1.884658	           -0.020702	            0.002425	            0.009001	           -3.154120	           -0.768683	            4.599294	           -0.351724	            1.268398	            1.872723	            0.008895	            0.002168	           -0.012971
            1.938000	           -1.132308	          253.169429	            8.912536	            0.141087	            0.000000	            0.270538	           -0.028449	            6.360832	            0.223926	            3.444954	          254.048922	           -4.972437	           -0.121731	            0.000000	            0.281127	           -0.008521	           -0.628414	            0.012300	           10.762579	           -1.254481	           -4.678155	            0.381093	            1.275605	            1.884658	           -0.021082	            0.002457	            0.009164	           -3.147562	           -0.756056	            4.609487	           -0.351723	            1.268396	            1.872719	            0.009038	            0.002171	           -0.013236
